<svg width="297" height="287" viewBox="0 0 297 287" fill="none" xmlns="http://www.w3.org/2000/svg">
<g clip-path="url(#clip0_301_315)">
<path d="M31.1724 254.695H24.7566V253.246C24.7566 251.777 24.4106 250.507 23.7187 249.437C23.0268 248.366 21.8631 247.831 20.2277 247.831C19.3471 247.831 18.6343 247.999 18.0891 248.334C17.544 248.67 17.1037 249.09 16.7682 249.594C16.4327 250.14 16.2021 250.759 16.0763 251.452C15.9505 252.144 15.8876 252.869 15.8876 253.624C15.8876 254.506 15.9191 255.241 15.982 255.828C16.0449 256.416 16.2021 256.941 16.4537 257.403C16.7053 257.864 17.0722 258.263 17.5545 258.599C18.0367 258.935 18.6972 259.271 19.5358 259.607L24.4421 261.559C25.8678 262.105 27.021 262.745 27.9016 263.48C28.7822 264.214 29.4741 265.064 29.9773 266.03C30.4386 267.038 30.7531 268.182 30.9208 269.462C31.0885 270.742 31.1724 272.201 31.1724 273.839C31.1724 275.728 30.9837 277.481 30.6063 279.097C30.2289 280.713 29.6209 282.088 28.7822 283.222C27.9016 284.397 26.7484 285.321 25.3227 285.992C23.8969 286.664 22.1567 287 20.1019 287C18.5504 287 17.1037 286.727 15.7618 286.181C14.4199 285.636 13.2668 284.88 12.3023 283.914C11.3378 282.949 10.5725 281.826 10.0064 280.545C9.44031 279.265 9.15726 277.869 9.15726 276.358V273.965H15.5731V275.98C15.5731 277.155 15.9191 278.215 16.611 279.16C17.3029 280.104 18.4665 280.577 20.1019 280.577C21.1922 280.577 22.0414 280.419 22.6494 280.104C23.2574 279.79 23.7292 279.338 24.0647 278.75C24.4001 278.163 24.5993 277.46 24.6622 276.641C24.7251 275.822 24.7566 274.909 24.7566 273.902C24.7566 272.726 24.7146 271.76 24.6308 271.005C24.5469 270.249 24.3792 269.64 24.1276 269.179C23.834 268.717 23.4461 268.339 22.9639 268.045C22.4817 267.751 21.8422 267.436 21.0454 267.1L16.4537 265.211C13.6861 264.078 11.8305 262.577 10.887 260.709C9.94351 258.84 9.47176 256.5 9.47176 253.687C9.47176 252.008 9.70239 250.413 10.1637 248.901C10.6249 247.39 11.3168 246.088 12.2394 244.997C13.12 243.905 14.2417 243.034 15.6045 242.384C16.9674 241.733 18.5923 241.407 20.4793 241.407C22.0728 241.407 23.53 241.701 24.8509 242.289C26.1718 242.877 27.3145 243.653 28.279 244.619C30.2079 246.634 31.1724 248.943 31.1724 251.546V254.695Z" fill="#1E1E25"/>
<path d="M60.7356 252.365C60.7356 250.56 61.0501 248.964 61.6791 247.579C62.3081 246.193 63.1468 245.039 64.1951 244.115C65.2015 243.234 66.3442 242.562 67.6232 242.1C68.9022 241.638 70.1916 241.407 71.4916 241.407C72.7915 241.407 74.081 241.638 75.3599 242.1C76.6389 242.562 77.8026 243.234 78.8509 244.115C79.8573 245.039 80.675 246.193 81.304 247.579C81.933 248.964 82.2475 250.56 82.2475 252.365V276.043C82.2475 277.932 81.933 279.548 81.304 280.892C80.675 282.235 79.8573 283.348 78.8509 284.229C77.8026 285.153 76.6389 285.845 75.3599 286.307C74.081 286.769 72.7915 287 71.4916 287C70.1916 287 68.9022 286.769 67.6232 286.307C66.3442 285.845 65.2015 285.153 64.1951 284.229C63.1468 283.348 62.3081 282.235 61.6791 280.892C61.0501 279.548 60.7356 277.932 60.7356 276.043V252.365ZM67.1514 276.043C67.1514 277.596 67.5813 278.74 68.4409 279.475C69.3005 280.209 70.3174 280.577 71.4916 280.577C72.6657 280.577 73.6826 280.209 74.5422 279.475C75.4019 278.74 75.8317 277.596 75.8317 276.043V252.365C75.8317 250.811 75.4019 249.667 74.5422 248.933C73.6826 248.198 72.6657 247.831 71.4916 247.831C70.3174 247.831 69.3005 248.198 68.4409 248.933C67.5813 249.667 67.1514 250.811 67.1514 252.365V276.043ZM67.403 239.77L73.0641 230.891H79.8573L71.5545 239.77H67.403Z" fill="#1E1E25"/>
<path d="M113.063 286.622V241.785H132.185V247.831H119.479V261.433H130.55V267.478H119.479V286.622H113.063Z" fill="#1E1E25"/>
<path d="M155.464 286.622L165.465 241.785H170.811L180.812 286.622H174.397L172.51 276.987H163.766L161.879 286.622H155.464ZM171.315 270.942L168.169 254.695H168.044L164.899 270.942H171.315Z" fill="#1E1E25"/>
<path d="M207.042 286.622V280.955L219.119 247.831H207.671V241.785H226.101V246.886L213.772 280.577H226.101V286.622H207.042Z" fill="#1E1E25"/>
<path d="M255.218 286.622V241.785H274.34V247.831H261.634V260.992H272.705V267.038H261.634V280.199H274.34V286.622H255.218ZM255.344 239.77L261.508 230.891H267.421L273.585 239.77H268.679L264.465 233.788L260.25 239.77H255.344Z" fill="#1E1E25"/>
<path d="M69.5941 197.809L142.873 200.428L138.591 27.3303L76.1462 23.6831L69.5941 197.809Z" fill="#FF5864"/>
<path d="M297 19.3065L228.072 27.1152L220.859 200.79L289.719 203.697L297 19.3065Z" fill="#21A179"/>
<path d="M61.3803 178.896L68.1159 0L0 4.18771L6.92429 181.956L61.3803 178.896Z" fill="#FFBA06"/>
<path d="M212.839 179.012L219.711 13.4972L146.956 5.02736L151.386 184.207L212.839 179.012Z" fill="#3F88C5"/>
</g>
<defs>
<clipPath id="clip0_301_315">
<rect width="297" height="287" fill="white"/>
</clipPath>
</defs>
</svg>
